<svg width="28" height="24" viewBox="0 0 28 24" fill="none" xmlns="http://www.w3.org/2000/svg">
<g clip-path="url(#clip0_513_5)">
<path d="M9.06375 2.67702H26.8167L26.8537 2.67802C27.207 2.67802 27.5458 2.53769 27.7956 2.28789C28.0454 2.03809 28.1857 1.69929 28.1857 1.34602C28.1857 0.992755 28.0454 0.653956 27.7956 0.404157C27.5458 0.154359 27.207 0.0140234 26.8537 0.0140234L26.8147 0.0150234H26.8167H9.06375C8.71074 0.0147582 8.37209 0.154734 8.12229 0.404157C7.8725 0.653581 7.73201 0.99202 7.73175 1.34502C7.73148 1.69803 7.87146 2.03668 8.12088 2.28648C8.3703 2.53627 8.70874 2.67676 9.06175 2.67702H9.06375ZM26.8157 5.34302H9.06375C8.71074 5.34276 8.37209 5.48273 8.12229 5.73216C7.8725 5.98158 7.73201 6.32002 7.73175 6.67302C7.73148 7.02603 7.87146 7.36468 8.12088 7.61448C8.3703 7.86427 8.70874 8.00476 9.06175 8.00502H26.8157L26.8527 8.00602C27.0277 8.00602 27.2009 7.97157 27.3625 7.90463C27.5241 7.83769 27.6709 7.73958 27.7946 7.61589C27.9183 7.4922 28.0164 7.34536 28.0834 7.18376C28.1503 7.02215 28.1847 6.84894 28.1847 6.67402C28.1847 6.4991 28.1503 6.32589 28.0834 6.16429C28.0164 6.00268 27.9183 5.85584 27.7946 5.73216C27.6709 5.60847 27.5241 5.51035 27.3625 5.44342C27.2009 5.37648 27.0277 5.34202 26.8527 5.34202L26.8137 5.34302H26.8157ZM26.8157 10.669H9.06375L9.02675 10.668C8.67348 10.668 8.33468 10.8084 8.08488 11.0582C7.83508 11.308 7.69475 11.6468 7.69475 12C7.69475 12.3533 7.83508 12.6921 8.08488 12.9419C8.33468 13.1917 8.67348 13.332 9.02675 13.332L9.06575 13.331H9.06375H26.8157L26.8527 13.332C27.206 13.332 27.5448 13.1917 27.7946 12.9419C28.0444 12.6921 28.1847 12.3533 28.1847 12C28.1847 11.6468 28.0444 11.308 27.7946 11.0582C27.5448 10.8084 27.206 10.668 26.8527 10.668L26.8137 10.669H26.8157ZM26.8157 21.321H9.06375C8.71074 21.3208 8.37209 21.4607 8.12229 21.7102C7.8725 21.9596 7.73201 22.298 7.73175 22.651C7.73148 23.004 7.87146 23.3427 8.12088 23.5925C8.3703 23.8423 8.70874 23.9828 9.06175 23.983H26.8157C26.9905 23.9832 27.1636 23.9489 27.3252 23.8821C27.4867 23.8153 27.6335 23.7174 27.7572 23.5939C27.8809 23.4704 27.979 23.3237 28.046 23.1623C28.1131 23.0009 28.1476 22.8278 28.1477 22.653C28.1479 22.4782 28.1136 22.3051 28.0468 22.1436C27.98 21.9821 27.8821 21.8353 27.7586 21.7116C27.6351 21.5879 27.4885 21.4897 27.327 21.4227C27.1656 21.3557 26.9925 21.3212 26.8177 21.321H26.8157ZM26.8157 15.994H9.06375L9.02675 15.993C8.67348 15.993 8.33468 16.1334 8.08488 16.3832C7.83508 16.633 7.69475 16.9718 7.69475 17.325C7.69475 17.6783 7.83508 18.0171 8.08488 18.2669C8.33468 18.5167 8.67348 18.657 9.02675 18.657L9.06575 18.656H9.06375H26.8157L26.8527 18.657C27.206 18.657 27.5448 18.5167 27.7946 18.2669C28.0444 18.0171 28.1847 17.6783 28.1847 17.325C28.1847 16.9718 28.0444 16.633 27.7946 16.3832C27.5448 16.1334 27.206 15.993 26.8527 15.993L26.8137 15.994H26.8157ZM1.58175 2.27902V5.61302C1.58539 5.78246 1.65507 5.94377 1.77593 6.06257C1.89679 6.18138 2.05927 6.24828 2.22875 6.24902L2.26975 6.24802H2.26775L2.29975 6.24902C2.46979 6.2491 2.63317 6.18295 2.75526 6.0646C2.87735 5.94624 2.94855 5.78498 2.95375 5.61502V0.627023C2.95164 0.459736 2.88371 0.300015 2.76466 0.182466C2.64561 0.0649179 2.48505 -0.000989796 2.31775 -0.000976561H2.29575C2.1897 -0.00072834 2.08632 0.0254637 1.99272 0.0753149C1.89912 0.125166 1.81913 0.197162 1.75975 0.285023L1.75875 0.287023L1.75275 0.296023L1.17375 1.11602C1.04717 1.25434 0.9732 1.43272 0.964746 1.62002V1.63202C0.964746 1.97902 1.23775 2.26202 1.58075 2.27802L1.58175 2.27902ZM0.676746 15.124H3.29075C3.45783 15.1098 3.6135 15.0334 3.72703 14.91C3.84056 14.7866 3.90368 14.6251 3.90393 14.4574C3.90418 14.2898 3.84154 14.1281 3.72839 14.0043C3.61523 13.8806 3.45978 13.8037 3.29275 13.789H1.39175V13.779C1.39175 13.579 1.84875 13.256 2.21575 12.998C2.94775 12.483 3.85475 11.841 3.85475 10.728V10.712C3.85479 10.465 3.80498 10.2204 3.70832 9.99303C3.61166 9.76566 3.47012 9.56011 3.29218 9.38871C3.11424 9.2173 2.90354 9.08355 2.67271 8.99545C2.44188 8.90736 2.19564 8.86674 1.94875 8.87602H1.95175C1.72218 8.86087 1.49191 8.89219 1.27473 8.96812C1.05756 9.04405 0.857934 9.16303 0.68782 9.31792C0.517706 9.47282 0.380598 9.66045 0.284705 9.86958C0.188813 10.0787 0.136108 10.305 0.129746 10.535V10.537C0.117642 10.6302 0.125581 10.7249 0.15303 10.8148C0.180479 10.9047 0.226805 10.9877 0.28891 11.0582C0.351015 11.1287 0.427466 11.1852 0.513149 11.2238C0.598831 11.2624 0.691769 11.2822 0.785746 11.282H0.794746L0.830746 11.283C1.00313 11.2829 1.16874 11.2159 1.29275 11.0962C1.41677 10.9764 1.48953 10.8133 1.49575 10.641C1.49575 10.444 1.54575 10.222 1.93875 10.222L1.97675 10.221C2.25775 10.221 2.48475 10.448 2.48475 10.729V10.746V10.745C2.48475 11.163 1.93575 11.563 1.40575 11.945C0.750746 12.418 0.0067457 12.953 0.0067457 13.781V14.492C0.0147146 14.6625 0.0880378 14.8234 0.211494 14.9413C0.33495 15.0592 0.499057 15.125 0.669746 15.125H0.677746L0.676746 15.124ZM3.76475 19.476C3.78602 19.239 3.75392 19.0002 3.67081 18.7773C3.58769 18.5543 3.45568 18.3527 3.28446 18.1875C3.11325 18.0222 2.90718 17.8974 2.6814 17.8222C2.45562 17.747 2.21586 17.7234 1.97975 17.753L1.98775 17.752C1.75729 17.7247 1.52369 17.7457 1.30177 17.8135C1.07985 17.8814 0.874475 17.9947 0.698699 18.1462C0.522924 18.2977 0.380591 18.4841 0.280748 18.6936C0.180905 18.9031 0.125735 19.1311 0.118746 19.363V19.365C0.107862 19.4555 0.116291 19.5473 0.143477 19.6344C0.170663 19.7214 0.215989 19.8016 0.276464 19.8699C0.33694 19.9381 0.411192 19.9927 0.494323 20.0302C0.577454 20.0676 0.667576 20.087 0.758746 20.087L0.811746 20.085H0.809746C0.896933 20.0902 0.98426 20.0775 1.06635 20.0477C1.14844 20.0178 1.22355 19.9715 1.28706 19.9116C1.35058 19.8516 1.40115 19.7793 1.43566 19.699C1.47017 19.6188 1.4879 19.5324 1.48775 19.445L1.48675 19.407V19.409C1.48675 19.253 1.54175 19.074 1.97375 19.074C2.28775 19.074 2.41075 19.119 2.41075 19.568C2.41075 20.017 2.31675 20.055 1.94575 20.055C1.77934 20.0646 1.62294 20.1376 1.50867 20.2589C1.39439 20.3803 1.33093 20.5408 1.33131 20.7074C1.3317 20.8741 1.3959 21.0343 1.51073 21.1551C1.62556 21.2759 1.7823 21.3482 1.94875 21.357H1.95275C2.44275 21.357 2.54175 21.558 2.54175 21.88V22.018C2.54175 22.562 2.33275 22.665 1.93875 22.665C1.39975 22.665 1.35675 22.387 1.35675 22.301V22.285C1.35672 22.1967 1.33826 22.1094 1.30253 22.0286C1.2668 21.9479 1.21459 21.8755 1.14925 21.8161C1.08392 21.7567 1.00689 21.7116 0.923116 21.6837C0.839338 21.6558 0.750654 21.6457 0.662746 21.654H0.665746C0.573419 21.6473 0.480747 21.6611 0.394385 21.6944C0.308024 21.7278 0.230115 21.7798 0.166253 21.8468C0.102391 21.9138 0.0541612 21.9942 0.0250265 22.082C-0.00410818 22.1699 -0.0134248 22.2631 -0.0022543 22.355V22.352C0.0134899 22.5901 0.0772124 22.8226 0.185083 23.0354C0.292954 23.2482 0.442746 23.4371 0.625455 23.5905C0.808164 23.744 1.02002 23.859 1.24828 23.9285C1.47655 23.998 1.71651 24.0206 1.95375 23.995L1.94575 23.996C2.21152 24.0197 2.47925 23.9845 2.72982 23.8927C2.98038 23.801 3.20759 23.655 3.39522 23.4653C3.58284 23.2756 3.72625 23.0468 3.8152 22.7952C3.90414 22.5436 3.93643 22.2755 3.90975 22.01L3.91075 22.018V21.88L3.91175 21.813C3.91175 21.361 3.73275 20.95 3.44275 20.648L3.44375 20.649C3.64775 20.336 3.76875 19.952 3.76875 19.54L3.76775 19.47V19.473L3.76475 19.476Z" fill="white"/>
</g>
<defs>
<clipPath id="clip0_513_5">
<rect width="28" height="24" fill="white"/>
</clipPath>
</defs>
</svg>
