<svg width="16" height="16" viewBox="0 0 16 16" fill="none" xmlns="http://www.w3.org/2000/svg">
<path d="M10.5 13.5C10.6326 13.5 10.7598 13.5527 10.8536 13.6464C10.9473 13.7402 11 13.8674 11 14C11 14.1326 10.9473 14.2598 10.8536 14.3536C10.7598 14.4473 10.6326 14.5 10.5 14.5H1.5C1.36739 14.5 1.24021 14.4473 1.14645 14.3536C1.05268 14.2598 1 14.1326 1 14C1 13.8674 1.05268 13.7402 1.14645 13.6464C1.24021 13.5527 1.36739 13.5 1.5 13.5H10.5ZM4.8425 12H1.5C1.36739 12 1.24021 11.9473 1.14645 11.8536C1.05268 11.7598 1 11.6326 1 11.5C1 11.3674 1.05268 11.2402 1.14645 11.1464C1.24021 11.0527 1.36739 11 1.5 11H4.2425L4.8425 12ZM9.375 1C9.5884 1 9.79971 1.04203 9.99686 1.1237C10.194 1.20536 10.3732 1.32506 10.524 1.47595C10.6749 1.62685 10.7946 1.80599 10.8763 2.00314C10.958 2.20029 11 2.4116 11 2.625V7.875C11 8.0884 10.958 8.29971 10.8763 8.49686C10.7946 8.69401 10.6749 8.87315 10.524 9.02405C10.3732 9.17494 10.194 9.29464 9.99686 9.3763C9.79971 9.45797 9.5884 9.5 9.375 9.5H7.783L6.4285 11.7575C6.38689 11.8267 6.32914 11.8848 6.26018 11.9269C6.19121 11.9689 6.11309 11.9936 6.0325 11.9989C5.95191 12.0041 5.87124 11.9898 5.7974 11.9571C5.72356 11.9243 5.65875 11.8742 5.6085 11.811L5.5715 11.7575L4.2165 9.5H2.625C2.19402 9.5 1.7807 9.3288 1.47595 9.02405C1.1712 8.7193 1 8.30598 1 7.875V2.625C1 2.19402 1.1712 1.7807 1.47595 1.47595C1.7807 1.1712 2.19402 1 2.625 1H9.375ZM14.5 11C14.6326 11 14.7598 11.0527 14.8536 11.1464C14.9473 11.2402 15 11.3674 15 11.5C15 11.6326 14.9473 11.7598 14.8536 11.8536C14.7598 11.9473 14.6326 12 14.5 12H7.1575L7.7575 11H14.5ZM2.625 2C2.28 2 2 2.28 2 2.625V7.875C2 8.22 2.28 8.5 2.625 8.5H4.5C4.58628 8.50002 4.67108 8.52236 4.74617 8.56485C4.82125 8.60734 4.88407 8.66854 4.9285 8.7425L6 10.5275L7.0715 8.7425L7.1085 8.689C7.15532 8.63006 7.21485 8.58245 7.28263 8.54972C7.35042 8.517 7.42473 8.5 7.5 8.5H9.375C9.72 8.5 10 8.22 10 7.875V2.625C10 2.28 9.72 2 9.375 2H2.625ZM5.051 3.5025C5.17415 3.51513 5.28824 3.57299 5.37118 3.66489C5.45413 3.7568 5.50003 3.8762 5.5 4C5.5 4.976 5.22 5.691 4.926 6.1685C4.80906 6.36024 4.67194 6.53892 4.517 6.7015C4.44982 6.77055 4.3787 6.83566 4.304 6.8965L4.302 6.8985L4.3005 6.9C4.19441 6.97957 4.06106 7.01373 3.92979 6.99497C3.79851 6.97622 3.68007 6.90609 3.6005 6.8C3.52094 6.69391 3.48677 6.56056 3.50553 6.42929C3.52428 6.29801 3.59441 6.17956 3.7005 6.1L3.714 6.088C3.73133 6.073 3.7585 6.04683 3.7955 6.0095C3.94728 5.84906 4.07403 5.66668 4.1715 5.4685C4.09605 5.49642 4.01497 5.50566 3.93517 5.49544C3.85538 5.48522 3.77924 5.45584 3.71326 5.40981C3.64728 5.36378 3.59343 5.30247 3.55629 5.2311C3.51916 5.15974 3.49984 5.08045 3.5 5V4C3.5 3.86739 3.55268 3.74021 3.64645 3.64645C3.74021 3.55268 3.86739 3.5 4 3.5H5L5.051 3.5025ZM8.051 3.5025C8.17415 3.51513 8.28824 3.57299 8.37118 3.66489C8.45413 3.7568 8.50003 3.8762 8.5 4C8.5 4.976 8.22 5.691 7.926 6.1685C7.80906 6.36024 7.67194 6.53892 7.517 6.7015C7.45633 6.7643 7.39241 6.82389 7.3255 6.88L7.3105 6.8925L7.304 6.897L7.3015 6.8985L7.3005 6.9C7.19441 6.97957 7.06107 7.01373 6.92979 6.99497C6.79851 6.97622 6.68007 6.90609 6.6005 6.8C6.52094 6.69391 6.48677 6.56056 6.50553 6.42929C6.52428 6.29801 6.59441 6.17956 6.7005 6.1L6.714 6.088C6.73133 6.073 6.7585 6.04683 6.7955 6.0095C6.94728 5.84906 7.07403 5.66668 7.1715 5.4685C7.09605 5.49642 7.01497 5.50566 6.93517 5.49544C6.85538 5.48522 6.77924 5.45584 6.71326 5.40981C6.64728 5.36378 6.59343 5.30247 6.55629 5.2311C6.51916 5.15974 6.49984 5.08045 6.5 5V4C6.5 3.86739 6.55268 3.74021 6.64645 3.64645C6.74021 3.55268 6.86739 3.5 7 3.5H8L8.051 3.5025Z" fill="white"/>
</svg>
