<svg width="15" height="15" viewBox="0 0 15 15" fill="none" xmlns="http://www.w3.org/2000/svg">
<path fill-rule="evenodd" clip-rule="evenodd" d="M2 1.5C2 1.63261 1.94732 1.75979 1.85355 1.85355C1.75979 1.94732 1.63261 2 1.5 2C1.36739 2 1.24021 1.94732 1.14645 1.85355C1.05268 1.75979 1 1.63261 1 1.5C1 1.36739 1.05268 1.24021 1.14645 1.14645C1.24021 1.05268 1.36739 1 1.5 1C1.63261 1 1.75979 1.05268 1.85355 1.14645C1.94732 1.24021 2 1.36739 2 1.5ZM2 5V10H13V5H2ZM2 4C1.73478 4 1.48043 4.10536 1.29289 4.29289C1.10536 4.48043 1 4.73478 1 5V10C1 10.2652 1.10536 10.5196 1.29289 10.7071C1.48043 10.8946 1.73478 11 2 11H13C13.2652 11 13.5196 10.8946 13.7071 10.7071C13.8946 10.5196 14 10.2652 14 10V5C14 4.73478 13.8946 4.48043 13.7071 4.29289C13.5196 4.10536 13.2652 4 13 4H2ZM1.5 14C1.63261 14 1.75979 13.9473 1.85355 13.8536C1.94732 13.7598 2 13.6326 2 13.5C2 13.3674 1.94732 13.2402 1.85355 13.1464C1.75979 13.0527 1.63261 13 1.5 13C1.36739 13 1.24021 13.0527 1.14645 13.1464C1.05268 13.2402 1 13.3674 1 13.5C1 13.6326 1.05268 13.7598 1.14645 13.8536C1.24021 13.9473 1.36739 14 1.5 14ZM4 1.5C4 1.63261 3.94732 1.75979 3.85355 1.85355C3.75979 1.94732 3.63261 2 3.5 2C3.36739 2 3.24021 1.94732 3.14645 1.85355C3.05268 1.75979 3 1.63261 3 1.5C3 1.36739 3.05268 1.24021 3.14645 1.14645C3.24021 1.05268 3.36739 1 3.5 1C3.63261 1 3.75979 1.05268 3.85355 1.14645C3.94732 1.24021 4 1.36739 4 1.5ZM3.5 14C3.63261 14 3.75979 13.9473 3.85355 13.8536C3.94732 13.7598 4 13.6326 4 13.5C4 13.3674 3.94732 13.2402 3.85355 13.1464C3.75979 13.0527 3.63261 13 3.5 13C3.36739 13 3.24021 13.0527 3.14645 13.1464C3.05268 13.2402 3 13.3674 3 13.5C3 13.6326 3.05268 13.7598 3.14645 13.8536C3.24021 13.9473 3.36739 14 3.5 14ZM6 1.5C6 1.63261 5.94732 1.75979 5.85355 1.85355C5.75979 1.94732 5.63261 2 5.5 2C5.36739 2 5.24021 1.94732 5.14645 1.85355C5.05268 1.75979 5 1.63261 5 1.5C5 1.36739 5.05268 1.24021 5.14645 1.14645C5.24021 1.05268 5.36739 1 5.5 1C5.63261 1 5.75979 1.05268 5.85355 1.14645C5.94732 1.24021 6 1.36739 6 1.5ZM5.5 14C5.63261 14 5.75979 13.9473 5.85355 13.8536C5.94732 13.7598 6 13.6326 6 13.5C6 13.3674 5.94732 13.2402 5.85355 13.1464C5.75979 13.0527 5.63261 13 5.5 13C5.36739 13 5.24021 13.0527 5.14645 13.1464C5.05268 13.2402 5 13.3674 5 13.5C5 13.6326 5.05268 13.7598 5.14645 13.8536C5.24021 13.9473 5.36739 14 5.5 14ZM8 1.5C8 1.63261 7.94732 1.75979 7.85355 1.85355C7.75979 1.94732 7.63261 2 7.5 2C7.36739 2 7.24021 1.94732 7.14645 1.85355C7.05268 1.75979 7 1.63261 7 1.5C7 1.36739 7.05268 1.24021 7.14645 1.14645C7.24021 1.05268 7.36739 1 7.5 1C7.63261 1 7.75979 1.05268 7.85355 1.14645C7.94732 1.24021 8 1.36739 8 1.5ZM7.5 14C7.63261 14 7.75979 13.9473 7.85355 13.8536C7.94732 13.7598 8 13.6326 8 13.5C8 13.3674 7.94732 13.2402 7.85355 13.1464C7.75979 13.0527 7.63261 13 7.5 13C7.36739 13 7.24021 13.0527 7.14645 13.1464C7.05268 13.2402 7 13.3674 7 13.5C7 13.6326 7.05268 13.7598 7.14645 13.8536C7.24021 13.9473 7.36739 14 7.5 14ZM10 1.5C10 1.63261 9.94732 1.75979 9.85355 1.85355C9.75979 1.94732 9.63261 2 9.5 2C9.36739 2 9.24021 1.94732 9.14645 1.85355C9.05268 1.75979 9 1.63261 9 1.5C9 1.36739 9.05268 1.24021 9.14645 1.14645C9.24021 1.05268 9.36739 1 9.5 1C9.63261 1 9.75979 1.05268 9.85355 1.14645C9.94732 1.24021 10 1.36739 10 1.5ZM9.5 14C9.63261 14 9.75979 13.9473 9.85355 13.8536C9.94732 13.7598 10 13.6326 10 13.5C10 13.3674 9.94732 13.2402 9.85355 13.1464C9.75979 13.0527 9.63261 13 9.5 13C9.36739 13 9.24021 13.0527 9.14645 13.1464C9.05268 13.2402 9 13.3674 9 13.5C9 13.6326 9.05268 13.7598 9.14645 13.8536C9.24021 13.9473 9.36739 14 9.5 14ZM12 1.5C12 1.63261 11.9473 1.75979 11.8536 1.85355C11.7598 1.94732 11.6326 2 11.5 2C11.3674 2 11.2402 1.94732 11.1464 1.85355C11.0527 1.75979 11 1.63261 11 1.5C11 1.36739 11.0527 1.24021 11.1464 1.14645C11.2402 1.05268 11.3674 1 11.5 1C11.6326 1 11.7598 1.05268 11.8536 1.14645C11.9473 1.24021 12 1.36739 12 1.5ZM11.5 14C11.6326 14 11.7598 13.9473 11.8536 13.8536C11.9473 13.7598 12 13.6326 12 13.5C12 13.3674 11.9473 13.2402 11.8536 13.1464C11.7598 13.0527 11.6326 13 11.5 13C11.3674 13 11.2402 13.0527 11.1464 13.1464C11.0527 13.2402 11 13.3674 11 13.5C11 13.6326 11.0527 13.7598 11.1464 13.8536C11.2402 13.9473 11.3674 14 11.5 14ZM14 1.5C14 1.63261 13.9473 1.75979 13.8536 1.85355C13.7598 1.94732 13.6326 2 13.5 2C13.3674 2 13.2402 1.94732 13.1464 1.85355C13.0527 1.75979 13 1.63261 13 1.5C13 1.36739 13.0527 1.24021 13.1464 1.14645C13.2402 1.05268 13.3674 1 13.5 1C13.6326 1 13.7598 1.05268 13.8536 1.14645C13.9473 1.24021 14 1.36739 14 1.5ZM13.5 14C13.6326 14 13.7598 13.9473 13.8536 13.8536C13.9473 13.7598 14 13.6326 14 13.5C14 13.3674 13.9473 13.2402 13.8536 13.1464C13.7598 13.0527 13.6326 13 13.5 13C13.3674 13 13.2402 13.0527 13.1464 13.1464C13.0527 13.2402 13 13.3674 13 13.5C13 13.6326 13.0527 13.7598 13.1464 13.8536C13.2402 13.9473 13.3674 14 13.5 14Z" fill="white"/>
</svg>
